<svg width="24" height="25" viewBox="0 0 24 25" fill="none" xmlns="http://www.w3.org/2000/svg">
<g filter="url(#filter0_d_40_20)">
<path d="M18.6726 2.82743C18.3351 2.48998 17.8773 2.30042 17.4 2.30042C16.9228 2.30042 16.465 2.48998 16.1274 2.82743L9.30005 9.65483V12.2H11.8452L18.6726 5.37263C19.0101 5.03508 19.1997 4.57733 19.1997 4.10003C19.1997 3.62274 19.0101 3.16498 18.6726 2.82743Z" fill="white"/>
<path fill-rule="evenodd" clip-rule="evenodd" d="M4.80005 5.89998C4.80005 5.42259 4.98969 4.96475 5.32726 4.62718C5.66482 4.28962 6.12266 4.09998 6.60005 4.09998H10.2C10.4387 4.09998 10.6677 4.1948 10.8364 4.36358C11.0052 4.53236 11.1 4.76128 11.1 4.99998C11.1 5.23867 11.0052 5.46759 10.8364 5.63637C10.6677 5.80515 10.4387 5.89998 10.2 5.89998H6.60005V14.9H15.6V11.3C15.6 11.0613 15.6949 10.8324 15.8637 10.6636C16.0324 10.4948 16.2614 10.4 16.5 10.4C16.7387 10.4 16.9677 10.4948 17.1364 10.6636C17.3052 10.8324 17.4 11.0613 17.4 11.3V14.9C17.4 15.3774 17.2104 15.8352 16.8728 16.1728C16.5353 16.5103 16.0774 16.7 15.6 16.7H6.60005C6.12266 16.7 5.66482 16.5103 5.32726 16.1728C4.98969 15.8352 4.80005 15.3774 4.80005 14.9V5.89998Z" fill="white"/>
</g>
<defs>
<filter id="filter0_d_40_20" x="-1" y="0.5" width="26" height="26" filterUnits="userSpaceOnUse" color-interpolation-filters="sRGB">
<feFlood flood-opacity="0" result="BackgroundImageFix"/>
<feColorMatrix in="SourceAlpha" type="matrix" values="0 0 0 0 0 0 0 0 0 0 0 0 0 0 0 0 0 0 127 0" result="hardAlpha"/>
<feOffset dy="4"/>
<feGaussianBlur stdDeviation="2"/>
<feComposite in2="hardAlpha" operator="out"/>
<feColorMatrix type="matrix" values="0 0 0 0 0 0 0 0 0 0 0 0 0 0 0 0 0 0 0.25 0"/>
<feBlend mode="normal" in2="BackgroundImageFix" result="effect1_dropShadow_40_20"/>
<feBlend mode="normal" in="SourceGraphic" in2="effect1_dropShadow_40_20" result="shape"/>
</filter>
</defs>
</svg>
